<mxfile host="app.diagrams.net" modified="2023-09-21T01:50:29.742Z" agent="Mozilla/5.0 (Macintosh; Intel Mac OS X 10_15_7) AppleWebKit/605.1.15 (KHTML, like Gecko) Version/16.6 Safari/605.1.15" etag="0t8BX5DzCCP5UrlqHmeB" version="21.7.5" type="device">
  <diagram name="Page-1" id="jso9VNGj0VQ9F_BADQl-">
    <mxGraphModel dx="1224" dy="783" grid="1" gridSize="10" guides="1" tooltips="1" connect="1" arrows="1" fold="1" page="1" pageScale="1" pageWidth="827" pageHeight="1169" math="0" shadow="0">
      <root>
        <mxCell id="0" />
        <mxCell id="1" parent="0" />
        <mxCell id="juG_llJKlPF9mOQ4FmM4-10" value="" style="rounded=1;whiteSpace=wrap;html=1;strokeWidth=4;strokeColor=#9AC7BF;fillColor=none;arcSize=6;" vertex="1" parent="1">
          <mxGeometry x="37" y="230" width="283" height="370" as="geometry" />
        </mxCell>
        <mxCell id="juG_llJKlPF9mOQ4FmM4-1" value="" style="rounded=1;arcSize=3;dashed=0;fillColor=none;gradientColor=none;strokeWidth=2;" vertex="1" parent="1">
          <mxGeometry x="28" y="200" width="862" height="430" as="geometry" />
        </mxCell>
        <mxCell id="juG_llJKlPF9mOQ4FmM4-2" value="" style="dashed=0;html=1;shape=mxgraph.aws3.cloud;fillColor=#F58536;gradientColor=none;dashed=0;" vertex="1" parent="1">
          <mxGeometry x="55" y="181" width="60" height="40" as="geometry" />
        </mxCell>
        <mxCell id="juG_llJKlPF9mOQ4FmM4-3" value="" style="sketch=0;outlineConnect=0;fontColor=#232F3E;gradientColor=none;fillColor=#DD344C;strokeColor=none;dashed=0;verticalLabelPosition=bottom;verticalAlign=top;align=center;html=1;fontSize=12;fontStyle=0;aspect=fixed;pointerEvents=1;shape=mxgraph.aws4.role;" vertex="1" parent="1">
          <mxGeometry x="139" y="260" width="53.18" height="30" as="geometry" />
        </mxCell>
        <mxCell id="juG_llJKlPF9mOQ4FmM4-4" value="" style="sketch=0;outlineConnect=0;fontColor=#232F3E;gradientColor=none;fillColor=#DD344C;strokeColor=none;dashed=0;verticalLabelPosition=bottom;verticalAlign=top;align=center;html=1;fontSize=12;fontStyle=0;aspect=fixed;pointerEvents=1;shape=mxgraph.aws4.permissions;" vertex="1" parent="1">
          <mxGeometry x="151.72" y="298" width="31.79" height="40" as="geometry" />
        </mxCell>
        <mxCell id="juG_llJKlPF9mOQ4FmM4-5" value="IAM" style="sketch=0;outlineConnect=0;fontColor=#232F3E;gradientColor=none;strokeColor=#ffffff;fillColor=#232F3E;dashed=0;verticalLabelPosition=middle;verticalAlign=bottom;align=center;html=1;whiteSpace=wrap;fontSize=10;fontStyle=1;spacing=3;shape=mxgraph.aws4.productIcon;prIcon=mxgraph.aws4.identity_and_access_management;" vertex="1" parent="1">
          <mxGeometry x="58" y="261" width="80" height="100" as="geometry" />
        </mxCell>
        <mxCell id="juG_llJKlPF9mOQ4FmM4-6" value="" style="rounded=1;whiteSpace=wrap;html=1;strokeWidth=3;strokeColor=#FF6666;fillColor=none;arcSize=9;" vertex="1" parent="1">
          <mxGeometry x="51.18" y="241" width="148.82" height="120" as="geometry" />
        </mxCell>
        <mxCell id="juG_llJKlPF9mOQ4FmM4-7" value="policy" style="text;html=1;strokeColor=none;fillColor=none;align=center;verticalAlign=middle;whiteSpace=wrap;rounded=0;fontFamily=Verdana;" vertex="1" parent="1">
          <mxGeometry x="141.62" y="336" width="50" height="20" as="geometry" />
        </mxCell>
        <mxCell id="juG_llJKlPF9mOQ4FmM4-8" value="role" style="text;html=1;strokeColor=none;fillColor=none;align=center;verticalAlign=middle;whiteSpace=wrap;rounded=0;fontFamily=Verdana;" vertex="1" parent="1">
          <mxGeometry x="142.51" y="243" width="50" height="20" as="geometry" />
        </mxCell>
        <mxCell id="juG_llJKlPF9mOQ4FmM4-11" value="" style="rounded=1;whiteSpace=wrap;html=1;strokeWidth=4;strokeColor=#A680B8;fillColor=none;arcSize=6;" vertex="1" parent="1">
          <mxGeometry x="47" y="470" width="263" height="110" as="geometry" />
        </mxCell>
        <mxCell id="juG_llJKlPF9mOQ4FmM4-12" value="&lt;font face=&quot;Verdana&quot;&gt;AWS&lt;br&gt;Route53&lt;/font&gt;" style="sketch=0;points=[[0,0,0],[0.25,0,0],[0.5,0,0],[0.75,0,0],[1,0,0],[0,1,0],[0.25,1,0],[0.5,1,0],[0.75,1,0],[1,1,0],[0,0.25,0],[0,0.5,0],[0,0.75,0],[1,0.25,0],[1,0.5,0],[1,0.75,0]];outlineConnect=0;fontColor=#232F3E;fillColor=#8C4FFF;strokeColor=#ffffff;dashed=0;verticalLabelPosition=bottom;verticalAlign=top;align=center;html=1;fontSize=12;fontStyle=0;aspect=fixed;shape=mxgraph.aws4.resourceIcon;resIcon=mxgraph.aws4.route_53;" vertex="1" parent="1">
          <mxGeometry x="58" y="480" width="59" height="59" as="geometry" />
        </mxCell>
        <mxCell id="juG_llJKlPF9mOQ4FmM4-13" value="" style="shape=mxgraph.gcp2.doubleRect;strokeColor=#dddddd;shadow=1;strokeWidth=1;rounded=1;absoluteArcSize=1;arcSize=2;" vertex="1" parent="1">
          <mxGeometry x="147" y="507" width="150" height="59" as="geometry" />
        </mxCell>
        <mxCell id="juG_llJKlPF9mOQ4FmM4-14" value="&lt;font color=&quot;#000000&quot;&gt;&lt;span style=&quot;caret-color: rgb(0, 0, 0);&quot;&gt;Route53&lt;br&gt;&lt;/span&gt;&lt;/font&gt;DNS Records" style="editableCssRules=.*;html=1;fontColor=#999999;shape=image;verticalLabelPosition=middle;labelBackgroundColor=#ffffff;verticalAlign=middle;labelPosition=right;align=left;spacingLeft=20;part=1;points=[];imageAspect=0;image=data:image/svg+xml,PHN2ZyB4bWxucz0iaHR0cDovL3d3dy53My5vcmcvMjAwMC9zdmciIHhtbG5zOnY9Imh0dHBzOi8vdmVjdGEuaW8vbmFubyIgd2lkdGg9IjIwIiBoZWlnaHQ9IjIwIiB2aWV3Qm94PSIwIDAgMjAgMjAiPiYjeGE7CTxzdHlsZSB0eXBlPSJ0ZXh0L2NzcyI+JiN4YTsJLnN0MHtmaWxsOiM0Mjg1ZjQ7fSYjeGE7CS5zdDF7ZmlsbDojNjY5ZGY2O30mI3hhOwkuc3Qye2ZpbGw6I2FlY2JmYTt9JiN4YTsJLnN0M3tmaWxsOiNmZmY7fSYjeGE7CTwvc3R5bGU+JiN4YTsJPHBhdGggY2xhc3M9InN0MCIgZD0iTTkgNmgydjEwSDl6Ii8+JiN4YTsJPHBhdGggY2xhc3M9InN0MSIgZD0iTTIwIDE3SDB2MmgyMHoiLz4mI3hhOwk8cGF0aCBjbGFzcz0ic3QyIiBkPSJNMTIgMTZIOHY0aDR6TTAgMGgyMHY2SDB6Ii8+JiN4YTsJPHBhdGggY2xhc3M9InN0MSIgZD0iTTEwIDBoMTB2NkgxMHoiLz4mI3hhOwk8cGF0aCBjbGFzcz0ic3QzIiBkPSJNMiAyaDJ2MkgyeiIvPiYjeGE7CTxwYXRoIGNsYXNzPSJzdDIiIGQ9Ik0wIDhoMjB2NkgweiIvPiYjeGE7CTxwYXRoIGNsYXNzPSJzdDEiIGQ9Ik0xMCA4aDEwdjZIMTB6Ii8+JiN4YTsJPHBhdGggY2xhc3M9InN0MyIgZD0iTTIgMTBoMnYySDJ6Ii8+JiN4YTs8L3N2Zz4=;" vertex="1" parent="juG_llJKlPF9mOQ4FmM4-13">
          <mxGeometry width="30" height="30" relative="1" as="geometry">
            <mxPoint x="15" y="15" as="offset" />
          </mxGeometry>
        </mxCell>
        <mxCell id="juG_llJKlPF9mOQ4FmM4-18" value="" style="rounded=1;whiteSpace=wrap;html=1;strokeWidth=4;strokeColor=#A680B8;fillColor=none;arcSize=6;" vertex="1" parent="1">
          <mxGeometry x="340" y="230" width="530" height="370" as="geometry" />
        </mxCell>
        <mxCell id="juG_llJKlPF9mOQ4FmM4-19" value="" style="rounded=1;arcSize=4;dashed=1;fillColor=none;gradientColor=none;dashPattern=8 3 1 3;strokeWidth=2;" vertex="1" parent="1">
          <mxGeometry x="360" y="250" width="480" height="330" as="geometry" />
        </mxCell>
        <mxCell id="juG_llJKlPF9mOQ4FmM4-20" value="" style="sketch=0;html=1;dashed=0;whitespace=wrap;fillColor=#2875E2;strokeColor=#ffffff;points=[[0.005,0.63,0],[0.1,0.2,0],[0.9,0.2,0],[0.5,0,0],[0.995,0.63,0],[0.72,0.99,0],[0.5,1,0],[0.28,0.99,0]];verticalLabelPosition=bottom;align=center;verticalAlign=top;shape=mxgraph.kubernetes.icon;prIcon=ns" vertex="1" parent="1">
          <mxGeometry x="350" y="221" width="50" height="48" as="geometry" />
        </mxCell>
        <mxCell id="juG_llJKlPF9mOQ4FmM4-21" value="default namespace" style="text;html=1;strokeColor=none;fillColor=none;align=center;verticalAlign=middle;whiteSpace=wrap;rounded=0;fontFamily=Verdana;" vertex="1" parent="1">
          <mxGeometry x="382" y="253" width="140" height="20" as="geometry" />
        </mxCell>
        <mxCell id="juG_llJKlPF9mOQ4FmM4-22" value="" style="sketch=0;html=1;dashed=0;whitespace=wrap;fillColor=#2875E2;strokeColor=#ffffff;points=[[0.005,0.63,0],[0.1,0.2,0],[0.9,0.2,0],[0.5,0,0],[0.995,0.63,0],[0.72,0.99,0],[0.5,1,0],[0.28,0.99,0]];verticalLabelPosition=bottom;align=center;verticalAlign=top;shape=mxgraph.kubernetes.icon;prIcon=sa" vertex="1" parent="1">
          <mxGeometry x="382" y="330" width="70" height="64" as="geometry" />
        </mxCell>
        <mxCell id="juG_llJKlPF9mOQ4FmM4-23" value="external-dns&lt;br&gt;Service Account" style="text;html=1;strokeColor=none;fillColor=none;align=center;verticalAlign=middle;whiteSpace=wrap;rounded=0;fontFamily=Verdana;" vertex="1" parent="1">
          <mxGeometry x="390" y="394" width="110" height="25" as="geometry" />
        </mxCell>
        <mxCell id="juG_llJKlPF9mOQ4FmM4-24" value="" style="sketch=0;points=[[0,0,0],[0.25,0,0],[0.5,0,0],[0.75,0,0],[1,0,0],[0,1,0],[0.25,1,0],[0.5,1,0],[0.75,1,0],[1,1,0],[0,0.25,0],[0,0.5,0],[0,0.75,0],[1,0.25,0],[1,0.5,0],[1,0.75,0]];outlineConnect=0;fontColor=#232F3E;fillColor=#ED7100;strokeColor=#ffffff;dashed=0;verticalLabelPosition=bottom;verticalAlign=top;align=center;html=1;fontSize=12;fontStyle=0;aspect=fixed;shape=mxgraph.aws4.resourceIcon;resIcon=mxgraph.aws4.eks;" vertex="1" parent="1">
          <mxGeometry x="787" y="203" width="50" height="50" as="geometry" />
        </mxCell>
        <mxCell id="juG_llJKlPF9mOQ4FmM4-25" value="" style="image;sketch=0;aspect=fixed;html=1;points=[];align=center;fontSize=12;image=img/lib/mscae/Kubernetes.svg;" vertex="1" parent="1">
          <mxGeometry x="837" y="202" width="50" height="48" as="geometry" />
        </mxCell>
        <mxCell id="juG_llJKlPF9mOQ4FmM4-26" value="" style="rounded=1;whiteSpace=wrap;html=1;arcSize=8;fillColor=none;" vertex="1" parent="1">
          <mxGeometry x="440" y="450" width="370" height="115" as="geometry" />
        </mxCell>
        <mxCell id="juG_llJKlPF9mOQ4FmM4-27" value="" style="endArrow=blockThin;startArrow=openThin;html=1;rounded=0;exitX=0.005;exitY=0.63;exitDx=0;exitDy=0;exitPerimeter=0;strokeWidth=2;startFill=0;endFill=1;strokeColor=#CDA2BE;" edge="1" parent="1" source="juG_llJKlPF9mOQ4FmM4-22">
          <mxGeometry width="50" height="50" relative="1" as="geometry">
            <mxPoint x="284.51" y="280" as="sourcePoint" />
            <mxPoint x="192.51" y="281.5699658703072" as="targetPoint" />
            <Array as="points">
              <mxPoint x="280" y="370" />
              <mxPoint x="280" y="280" />
            </Array>
          </mxGeometry>
        </mxCell>
        <mxCell id="juG_llJKlPF9mOQ4FmM4-28" value="Annotate SA with&lt;br&gt;IAM Role" style="text;html=1;strokeColor=none;fillColor=none;align=right;verticalAlign=middle;whiteSpace=wrap;rounded=0;fontFamily=Verdana;" vertex="1" parent="1">
          <mxGeometry x="201" y="318" width="110" height="42" as="geometry" />
        </mxCell>
        <mxCell id="juG_llJKlPF9mOQ4FmM4-29" value="" style="sketch=0;html=1;dashed=0;whitespace=wrap;fillColor=#2875E2;strokeColor=#ffffff;points=[[0.005,0.63,0],[0.1,0.2,0],[0.9,0.2,0],[0.5,0,0],[0.995,0.63,0],[0.72,0.99,0],[0.5,1,0],[0.28,0.99,0]];verticalLabelPosition=bottom;align=center;verticalAlign=top;shape=mxgraph.kubernetes.icon;prIcon=pod" vertex="1" parent="1">
          <mxGeometry x="452" y="463" width="60" height="61" as="geometry" />
        </mxCell>
        <mxCell id="juG_llJKlPF9mOQ4FmM4-30" value="external-dns pod" style="text;html=1;strokeColor=none;fillColor=none;align=center;verticalAlign=middle;whiteSpace=wrap;rounded=0;fontFamily=Verdana;" vertex="1" parent="1">
          <mxGeometry x="446" y="527.5" width="83" height="20" as="geometry" />
        </mxCell>
        <mxCell id="juG_llJKlPF9mOQ4FmM4-31" value="" style="sketch=0;html=1;dashed=0;whitespace=wrap;fillColor=#2875E2;strokeColor=#ffffff;points=[[0.005,0.63,0],[0.1,0.2,0],[0.9,0.2,0],[0.5,0,0],[0.995,0.63,0],[0.72,0.99,0],[0.5,1,0],[0.28,0.99,0]];verticalLabelPosition=bottom;align=center;verticalAlign=top;shape=mxgraph.kubernetes.icon;prIcon=deploy" vertex="1" parent="1">
          <mxGeometry x="541.5" y="465.5" width="60.5" height="56.5" as="geometry" />
        </mxCell>
        <mxCell id="juG_llJKlPF9mOQ4FmM4-32" value="external-dns deploy" style="text;html=1;strokeColor=none;fillColor=none;align=center;verticalAlign=middle;whiteSpace=wrap;rounded=0;fontFamily=Verdana;" vertex="1" parent="1">
          <mxGeometry x="532.5" y="527.5" width="83" height="20" as="geometry" />
        </mxCell>
        <mxCell id="juG_llJKlPF9mOQ4FmM4-33" value="" style="sketch=0;html=1;dashed=0;whitespace=wrap;fillColor=#2875E2;strokeColor=#ffffff;points=[[0.005,0.63,0],[0.1,0.2,0],[0.9,0.2,0],[0.5,0,0],[0.995,0.63,0],[0.72,0.99,0],[0.5,1,0],[0.28,0.99,0]];verticalLabelPosition=bottom;align=center;verticalAlign=top;shape=mxgraph.kubernetes.icon;prIcon=c_role" vertex="1" parent="1">
          <mxGeometry x="634" y="467.5" width="60" height="54.5" as="geometry" />
        </mxCell>
        <mxCell id="juG_llJKlPF9mOQ4FmM4-34" value="external-dns Cluster Role" style="text;html=1;strokeColor=none;fillColor=none;align=center;verticalAlign=middle;whiteSpace=wrap;rounded=0;fontFamily=Verdana;" vertex="1" parent="1">
          <mxGeometry x="622.5" y="523.5" width="83" height="27.5" as="geometry" />
        </mxCell>
        <mxCell id="juG_llJKlPF9mOQ4FmM4-35" value="" style="sketch=0;html=1;dashed=0;whitespace=wrap;fillColor=#2875E2;strokeColor=#ffffff;points=[[0.005,0.63,0],[0.1,0.2,0],[0.9,0.2,0],[0.5,0,0],[0.995,0.63,0],[0.72,0.99,0],[0.5,1,0],[0.28,0.99,0]];verticalLabelPosition=bottom;align=center;verticalAlign=top;shape=mxgraph.kubernetes.icon;prIcon=crb" vertex="1" parent="1">
          <mxGeometry x="720" y="470.5" width="60" height="50" as="geometry" />
        </mxCell>
        <mxCell id="juG_llJKlPF9mOQ4FmM4-36" value="external-dns Cluster Role&lt;br&gt;Binding" style="text;html=1;strokeColor=none;fillColor=none;align=center;verticalAlign=middle;whiteSpace=wrap;rounded=0;fontFamily=Verdana;" vertex="1" parent="1">
          <mxGeometry x="717" y="528" width="83" height="27.5" as="geometry" />
        </mxCell>
        <mxCell id="juG_llJKlPF9mOQ4FmM4-37" value="" style="sketch=0;html=1;dashed=0;whitespace=wrap;fillColor=#2875E2;strokeColor=#ffffff;points=[[0.005,0.63,0],[0.1,0.2,0],[0.9,0.2,0],[0.5,0,0],[0.995,0.63,0],[0.72,0.99,0],[0.5,1,0],[0.28,0.99,0]];verticalLabelPosition=bottom;align=center;verticalAlign=top;shape=mxgraph.kubernetes.icon;prIcon=api" vertex="1" parent="1">
          <mxGeometry x="680" y="315" width="70" height="62" as="geometry" />
        </mxCell>
        <mxCell id="juG_llJKlPF9mOQ4FmM4-38" value="" style="endArrow=classic;startArrow=classic;html=1;rounded=0;exitX=0.995;exitY=0.63;exitDx=0;exitDy=0;exitPerimeter=0;entryX=0.5;entryY=0;entryDx=0;entryDy=0;entryPerimeter=0;strokeWidth=2;" edge="1" parent="1" source="juG_llJKlPF9mOQ4FmM4-22" target="juG_llJKlPF9mOQ4FmM4-31">
          <mxGeometry width="50" height="50" relative="1" as="geometry">
            <mxPoint x="540" y="360" as="sourcePoint" />
            <mxPoint x="590" y="310" as="targetPoint" />
            <Array as="points">
              <mxPoint x="572" y="370" />
            </Array>
          </mxGeometry>
        </mxCell>
        <mxCell id="juG_llJKlPF9mOQ4FmM4-39" value="" style="endArrow=classic;startArrow=classic;html=1;rounded=0;exitX=0.995;exitY=0.63;exitDx=0;exitDy=0;exitPerimeter=0;strokeWidth=4;strokeColor=#66FFFF;" edge="1" parent="1">
          <mxGeometry width="50" height="50" relative="1" as="geometry">
            <mxPoint x="750" y="354" as="sourcePoint" />
            <mxPoint x="720" y="440" as="targetPoint" />
            <Array as="points">
              <mxPoint x="800" y="354" />
              <mxPoint x="800" y="400" />
              <mxPoint x="760" y="400" />
              <mxPoint x="720" y="400" />
            </Array>
          </mxGeometry>
        </mxCell>
        <mxCell id="juG_llJKlPF9mOQ4FmM4-42" style="edgeStyle=orthogonalEdgeStyle;rounded=0;orthogonalLoop=1;jettySize=auto;html=1;entryX=0.5;entryY=0;entryDx=0;entryDy=0;entryPerimeter=0;strokeColor=#66FFFF;strokeWidth=4;" edge="1" parent="1" source="juG_llJKlPF9mOQ4FmM4-41" target="juG_llJKlPF9mOQ4FmM4-37">
          <mxGeometry relative="1" as="geometry">
            <Array as="points">
              <mxPoint x="715" y="140" />
            </Array>
          </mxGeometry>
        </mxCell>
        <mxCell id="juG_llJKlPF9mOQ4FmM4-41" value="" style="points=[[0.35,0,0],[0.98,0.51,0],[1,0.71,0],[0.67,1,0],[0,0.795,0],[0,0.65,0]];verticalLabelPosition=bottom;sketch=0;html=1;verticalAlign=top;aspect=fixed;align=center;pointerEvents=1;shape=mxgraph.cisco19.user;fillColor=#005073;strokeColor=none;" vertex="1" parent="1">
          <mxGeometry x="590" y="110" width="50" height="50" as="geometry" />
        </mxCell>
        <mxCell id="juG_llJKlPF9mOQ4FmM4-43" value="Deploy Ingress / service k8s&lt;br&gt;Manifest with external-dns&lt;br&gt;Annotations" style="text;html=1;strokeColor=none;fillColor=none;align=center;verticalAlign=middle;whiteSpace=wrap;rounded=0;fontFamily=Verdana;" vertex="1" parent="1">
          <mxGeometry x="566.5" y="62" width="183" height="80" as="geometry" />
        </mxCell>
        <mxCell id="juG_llJKlPF9mOQ4FmM4-44" value="&lt;b&gt;&lt;font style=&quot;font-size: 17px;&quot;&gt;EKS Cluster&lt;/font&gt;&lt;/b&gt;" style="text;html=1;strokeColor=none;fillColor=none;align=center;verticalAlign=middle;whiteSpace=wrap;rounded=0;fontFamily=Verdana;" vertex="1" parent="1">
          <mxGeometry x="666" y="200" width="128" height="30" as="geometry" />
        </mxCell>
        <mxCell id="juG_llJKlPF9mOQ4FmM4-45" value="K8s API Server" style="text;html=1;strokeColor=none;fillColor=none;align=center;verticalAlign=middle;whiteSpace=wrap;rounded=0;fontFamily=Verdana;" vertex="1" parent="1">
          <mxGeometry x="724" y="306" width="95" height="20" as="geometry" />
        </mxCell>
        <mxCell id="juG_llJKlPF9mOQ4FmM4-46" value="&lt;div style=&quot;&quot;&gt;&lt;div style=&quot;text-align: left;&quot;&gt;External-dns retrieves a list of resources (Services, Ingress, etc.) from Kubernetes API Server, to determine a desired list of DNS records that need&lt;/div&gt;&lt;/div&gt;&lt;div style=&quot;text-align: left;&quot;&gt;to be created / updated / delete from AWS Route 53&lt;/div&gt;" style="text;html=1;strokeColor=none;fillColor=none;align=center;verticalAlign=middle;whiteSpace=wrap;rounded=0;fontFamily=Verdana;" vertex="1" parent="1">
          <mxGeometry x="28" y="622" width="652" height="80" as="geometry" />
        </mxCell>
      </root>
    </mxGraphModel>
  </diagram>
</mxfile>
